<svg width="128" height="128" viewBox="0 0 128 128" fill="none" xmlns="http://www.w3.org/2000/svg">
  <g fill="#FFFFFF">
    <path d="M34 18C32.8954 18 32 18.8954 32 20V29C32 47.5797 45.2383 63.0683 62.8 66.5556V84H52C48.6863 84 46 86.6863 46 90C46 93.3137 48.6863 96 52 96H76C79.3137 96 82 93.3137 82 90C82 86.6863 79.3137 84 76 84H65.2V66.5556C82.7617 63.0683 96 47.5797 96 29V20C96 18.8954 95.1046 18 94 18H34Z"/>
    <path d="M23 26C17.4772 26 13 30.4772 13 36V41C13 54.2548 23.7452 65 37 65H41.5C38.7896 61.847 36.4735 58.3465 34.6277 54.5714H32C24.268 54.5714 18 48.3034 18 40.5714V36C18 33.2386 20.2386 31 23 31H29.2502C29.0838 29.3536 29 27.6834 29 26H23Z"/>
    <path d="M105 26C110.523 26 115 30.4772 115 36V41C115 54.2548 104.255 65 91 65H86.5C89.2104 61.847 91.5265 58.3465 93.3723 54.5714H96C103.732 54.5714 110 48.3034 110 40.5714V36C110 33.2386 107.761 31 105 31H98.7498C98.9162 29.3536 99 27.6834 99 26H105Z"/>
  </g>
</svg>
